<svg xmlns="http://www.w3.org/2000/svg" width="60" height="60" viewBox="0 0 60 60"><defs><style>.a,.d{fill:none;}.a{stroke:#5cac21;stroke-width:5px;opacity:0.8;}.b{fill:#5cac21;}.c{stroke:none;}</style></defs><g transform="translate(-49 -115)"><g class="a" transform="translate(49 115)"><circle class="c" cx="30" cy="30" r="30"/><circle class="d" cx="30" cy="30" r="27.5"/></g><g transform="translate(-71.081 -31.046)"><g transform="translate(144.279 158.334)"><path class="b" d="M148.588,169.718a5.692,5.692,0,1,1,5.694-5.694A5.7,5.7,0,0,1,148.588,169.718Z" transform="translate(-142.896 -158.334)"/></g><g transform="translate(137.53 170.953)"><path class="b" d="M144.053,191.972v-2.045a.65.65,0,0,0-.22-.463c-.1-.1-.267-.279-.278-.882v-9.335a.486.486,0,0,0-.4-.479.613.613,0,0,0-.083-.006.486.486,0,0,0-.457.322,20.919,20.919,0,0,0-.648,9,2.132,2.132,0,0,1-1.911,2.336c-.067.005-.141.01-.214.01a2.121,2.121,0,0,1-2.117-1.919c-1.168-11.676,3.148-16.031,7.988-19a2.272,2.272,0,0,1,.34-.163.448.448,0,0,0,.088-.045,7.294,7.294,0,0,1,2.049-.933l1.433,1.5a.488.488,0,0,0,.7,0l1.434-1.5a7.3,7.3,0,0,1,2.048.933.546.546,0,0,0,.089.047,2.086,2.086,0,0,1,.338.162c4.84,2.966,9.158,7.322,7.989,19a2.123,2.123,0,0,1-2.118,1.921c-.072,0-.147-.005-.221-.011a2.131,2.131,0,0,1-1.9-2.334,20.917,20.917,0,0,0-.648-9,.486.486,0,0,0-.457-.322.613.613,0,0,0-.083.006.486.486,0,0,0-.4.479v9.344a1.1,1.1,0,0,1-.278.873.65.65,0,0,0-.219.463v2.045Z" transform="translate(-137.53 -168.367)"/></g></g></g></svg>