<svg xmlns="http://www.w3.org/2000/svg" width="14.817" height="18.139" viewBox="0 0 14.817 18.139"><defs><style>.a{fill:#5cac21;}</style></defs><path class="a" d="M15.278,2.726c-1.989-1.448-3.4-1.417-3.942-1.329a.565.565,0,0,0-.368.234L6.117,8.324,3.741,11.6a2.569,2.569,0,0,0-.485,1.372l-.311,5.905a.589.589,0,0,0,.8.581l5.519-2.111a2.571,2.571,0,0,0,1.161-.891l1.936-2.672,5.288-7.3a.588.588,0,0,0,.105-.444,5.423,5.423,0,0,0-2.475-3.32Zm-6,13.445L7.134,17a.2.2,0,0,1-.232-.065,5.4,5.4,0,0,0-1.129-1.082A5.478,5.478,0,0,0,4.4,15.111a.2.2,0,0,1-.132-.2l.128-2.3.576-.793a4.484,4.484,0,0,1,2.975,1.048,4.491,4.491,0,0,1,1.912,2.508l-.578.794Z" transform="translate(-2.944 -1.362)"/></svg>