<svg xmlns="http://www.w3.org/2000/svg" width="20.164" height="22" viewBox="0 0 20.164 22"><defs><style>.a{fill:#5cac21;}</style></defs><path class="a" d="M7.332-31.411V-41.494a.446.446,0,0,0-.129-.329.446.446,0,0,0-.329-.129H5.958a.446.446,0,0,0-.329.129.446.446,0,0,0-.129.329v10.083a.446.446,0,0,0,.129.329.446.446,0,0,0,.329.129h.917a.446.446,0,0,0,.329-.129A.446.446,0,0,0,7.332-31.411Zm3.666,0V-41.494a.446.446,0,0,0-.129-.329.446.446,0,0,0-.329-.129H9.624a.446.446,0,0,0-.329.129.446.446,0,0,0-.129.329v10.083a.446.446,0,0,0,.129.329.446.446,0,0,0,.329.129h.917a.446.446,0,0,0,.329-.129A.446.446,0,0,0,11-31.411Zm3.666,0V-41.494a.446.446,0,0,0-.129-.329.446.446,0,0,0-.329-.129H13.29a.446.446,0,0,0-.329.129.446.446,0,0,0-.129.329v10.083a.446.446,0,0,0,.129.329.446.446,0,0,0,.329.129h.917a.446.446,0,0,0,.329-.129A.446.446,0,0,0,14.665-31.411ZM6.874-45.619H13.29L12.6-47.295a.4.4,0,0,0-.243-.158H7.819a.4.4,0,0,0-.243.158Zm13.29.458v.917a.446.446,0,0,1-.129.329.446.446,0,0,1-.329.129H18.331v13.578a3.252,3.252,0,0,1-.673,2.055,2,2,0,0,1-1.618.867H4.124a2.016,2.016,0,0,1-1.618-.838,3.134,3.134,0,0,1-.673-2.027V-43.786H.458a.446.446,0,0,1-.329-.129A.446.446,0,0,1,0-44.244v-.917a.446.446,0,0,1,.129-.329.446.446,0,0,1,.329-.129H4.883l1-2.392a1.984,1.984,0,0,1,.773-.9,2.021,2.021,0,0,1,1.131-.372h4.583a2.021,2.021,0,0,1,1.131.372,1.984,1.984,0,0,1,.773.9l1,2.392h4.425a.446.446,0,0,1,.329.129A.446.446,0,0,1,20.164-45.161Zm0,0" transform="translate(0 49.286)"/></svg>