<svg xmlns="http://www.w3.org/2000/svg" xmlns:xlink="http://www.w3.org/1999/xlink" width="145.73" height="37.732" viewBox="0 0 145.73 37.732"><defs><style>.a{fill:url(#a);}.b{fill:url(#b);}.c{fill:#7d7a78;}</style><linearGradient id="a" y1="-58.808" x2="1.001" y2="-58.808" gradientUnits="objectBoundingBox"><stop offset="0" stop-color="#abbc39"/><stop offset="0.643" stop-color="#859d3c"/></linearGradient><linearGradient id="b" x1="0" y1="-107.67" x2="1" y2="-107.67" xlink:href="#a"/></defs><g transform="translate(0 -4.889)"><g transform="translate(0 4.889)"><path class="a" d="M11.79,3.695,9.531,1.606,5.637,4.05,6.6,6.679l-2.757,3.88L1.1,10.672l-.142.611S.436,13.628.393,14.112a22.377,22.377,0,0,1,2.16,1.378,9.5,9.5,0,0,1-.142,2.558A14.964,14.964,0,0,0-.047,18.7,18.679,18.679,0,0,0,9.63,35.371c15.078,7.6,25.082-5.2,26.319-9.663-1.677,4.391-10.815,13.842-23.59,6.381C5.637,27.186,6.191,21.3,6.191,21.3c.227-6.168,2.487-8.527,4.022-10.346,1.99-2.373,8.157-5.841,8.939-6.025,1.45-.327-1.393,1.862,2.856,7.376,4.732,6.153-.91,16.9-3.24,19.043a7.445,7.445,0,0,0,3.695-.782,16.817,16.817,0,0,0,3.695-2.331l.114-2.43,2.373-3.439,3.524-.128,1.023-4.491-3.325-1.535L29.1,12.221l2.473-2.657L29.114,5.67,25.845,6.878l-3.51-2.416-.128-3.439L17.716,0,16.409,2.842Z" transform="translate(0.072)"/><path class="b" d="M89.393,104.371c-.4-2.828-.227-5.642,2.132-10.871A10.759,10.759,0,0,0,89,96.669c-1.421,2.842-3.908,12.051,4.9,16.868,4.363,1.847,10.388.213,14.922-4.69C106.759,111.335,91.525,119.535,89.393,104.371Z" transform="translate(-75.101 -80.213)"/><g transform="translate(43.681 5.443)"><path class="c" d="M309.282,40.1H308.6v-.9h3.24a2.316,2.316,0,0,1,0,4.633h-1.521v2.714h-1.037Zm2.387,2.842a1.311,1.311,0,0,0,1.393-1.435,1.285,1.285,0,0,0-1.378-1.407h-1.364v2.842Z" transform="translate(-308.415 -39.072)"/><path class="c" d="M380.468,40.323a.2.2,0,0,0-.227-.227H379.8v-.9h1.051c.469,0,.668.2.668.668v5.557a.209.209,0,0,0,.227.227h2.032a.209.209,0,0,0,.227-.227v-.469h.952v.924c0,.469-.2.668-.668.668h-3.14c-.469,0-.668-.2-.668-.668V40.323Z" transform="translate(-369.497 -39.072)"/><path class="c" d="M446.1,45.738h.142c.185,0,.284-.043.341-.227l2.3-6.21h1.094l2.3,6.21a.3.3,0,0,0,.341.227h.156v.9H452.2c-.526,0-.682-.128-.853-.6l-.554-1.521h-2.7l-.554,1.506c-.171.483-.341.6-.867.6H446.1Zm4.434-2.089-.8-2.231c-.128-.384-.284-1.023-.284-1.023h-.014a10.066,10.066,0,0,1-.284,1.023l-.8,2.231Z" transform="translate(-426.375 -39.158)"/><path class="c" d="M519.029,40.1h-1.478a.2.2,0,0,0-.227.227v.469H516.4v-.966c0-.469.156-.625.625-.625h5.059c.469,0,.625.156.625.625v.966h-.924v-.469a.2.2,0,0,0-.227-.227h-1.478v6.452h-1.037V40.1Z" transform="translate(-486.685 -39.072)"/><path class="c" d="M584.1,45.738h.142c.185,0,.284-.043.341-.227l2.3-6.21h1.094l2.3,6.21a.3.3,0,0,0,.341.227h.156v.9H590.2c-.526,0-.682-.128-.852-.6l-.554-1.521h-2.7l-.554,1.506c-.17.483-.341.6-.867.6H584.1Zm4.434-2.089-.8-2.231c-.128-.384-.284-1.023-.284-1.023h-.014a10.094,10.094,0,0,1-.284,1.023l-.8,2.231Z" transform="translate(-544.764 -39.158)"/><path class="c" d="M663.082,40.1H662.4v-.9h4.064c.469,0,.668.2.668.668v.924h-.952v-.469a.2.2,0,0,0-.227-.227h-1.819v2.416h2.5v.9h-2.5v3.141H663.1V40.1Z" transform="translate(-611.937 -39.072)"/><path class="c" d="M730.566,38.3a3.716,3.716,0,0,1,3.78,3.738,3.774,3.774,0,1,1-7.546,0A3.7,3.7,0,0,1,730.566,38.3Zm0,6.608a2.767,2.767,0,0,0,2.7-2.871,2.694,2.694,0,1,0-5.386,0A2.747,2.747,0,0,0,730.566,44.908Z" transform="translate(-667.185 -38.3)"/><path class="c" d="M813.582,40.1H812.9v-.9h3.2a2.033,2.033,0,0,1,2.188,2.146,1.89,1.89,0,0,1-1.321,1.947v.014a.885.885,0,0,1,.312.327l.882,1.762c.1.213.27.242.526.242h.128v.9h-.5c-.569,0-.782-.071-1.023-.554L816.3,44c-.185-.341-.327-.4-.725-.4h-.952v2.927h-1.037Zm2.387,2.629a1.2,1.2,0,0,0,1.265-1.336A1.16,1.16,0,0,0,816,40.1H814.62v2.629Z" transform="translate(-741.049 -39.072)"/><path class="c" d="M884.6,45.738h.355c.142,0,.213-.085.227-.227l.5-6.21h1.066l1.72,3.894c.17.4.369.924.369.924h.014s.185-.526.37-.924l1.719-3.894H892l.5,6.21c.014.142.085.227.227.227h.341v.9h-.924c-.469,0-.64-.2-.668-.668l-.3-3.88c-.028-.441-.014-1.08-.014-1.08h-.014s-.213.682-.383,1.08l-1.492,3.226h-.867l-1.478-3.226c-.171-.384-.4-1.094-.4-1.094h-.014s.014.654-.014,1.094l-.3,3.88c-.028.469-.2.668-.682.668H884.6Z" transform="translate(-802.56 -39.158)"/><path class="c" d="M974.5,45.738h.142c.185,0,.284-.043.341-.227l2.3-6.21h1.094l2.3,6.21a.3.3,0,0,0,.341.227h.156v.9H980.6c-.526,0-.682-.128-.852-.6l-.554-1.506h-2.7l-.554,1.506c-.17.483-.341.6-.867.6H974.5Zm4.434-2.089-.8-2.231c-.128-.384-.284-1.023-.284-1.023h-.015a10.011,10.011,0,0,1-.284,1.023l-.8,2.231Z" transform="translate(-879.684 -39.158)"/><path class="c" d="M308.266,133.286a.539.539,0,0,0-.611-.426H307.3V130.7h1.62a1.4,1.4,0,0,1,1.634,1.137l2.657,7.717a20.454,20.454,0,0,1,.526,2.032h.043a20.437,20.437,0,0,1,.526-2.032l2.657-7.717a1.389,1.389,0,0,1,1.62-1.137h1.634v2.16h-.37a.556.556,0,0,0-.611.426L315.1,144.527h-2.686Z" transform="translate(-307.3 -117.569)"/><path class="c" d="M476.965,132.86H475.7V130.7h8.356c.909,0,1.322.412,1.322,1.322v2.1h-2.316v-.838a.389.389,0,0,0-.426-.426h-3.112v3.624H484v2.16h-4.476v3.3a.389.389,0,0,0,.426.426h3.2a.389.389,0,0,0,.426-.426V141.1h2.316v2.1c0,.938-.412,1.322-1.322,1.322h-6.281c-.938,0-1.322-.384-1.322-1.322Z" transform="translate(-451.769 -117.569)"/><path class="c" d="M627.565,132.86H626.3V130.7h6.2a3.98,3.98,0,0,1,4.306,4.178,3.612,3.612,0,0,1-2.3,3.652v.043a1.636,1.636,0,0,1,.682.7l1.35,2.672c.213.412.54.455.981.455h.256v2.132h-1.35c-1.037,0-1.478-.156-1.933-1.037l-1.776-3.5c-.3-.54-.583-.64-1.307-.64h-1.294v5.173h-2.558V132.86Zm4.576,4.32a1.933,1.933,0,0,0,2.046-2.188,1.908,1.908,0,0,0-2-2.146h-2.061v4.334Z" transform="translate(-580.967 -117.569)"/><path class="c" d="M785.565,132.86H784.3V130.7h5.628c4.263,0,7.063,2.53,7.063,6.907s-2.785,6.935-7.063,6.935h-3.041c-.938,0-1.321-.384-1.321-1.322Zm2.984,9.507h1.25c2.771,0,4.548-1.663,4.548-4.775,0-3.084-1.819-4.732-4.548-4.732h-1.677v9.081A.389.389,0,0,0,788.549,142.367Z" transform="translate(-716.513 -117.569)"/><path class="c" d="M954.965,132.86H953.7V130.7h8.356c.91,0,1.322.412,1.322,1.322v2.1h-2.316v-.838a.389.389,0,0,0-.427-.426h-3.112v3.624h4.49v2.16h-4.49v3.3a.389.389,0,0,0,.426.426h3.2a.389.389,0,0,0,.426-.426V141.1h2.316v2.1c0,.938-.412,1.322-1.321,1.322h-6.281c-.938,0-1.321-.384-1.321-1.322Z" transform="translate(-861.84 -117.569)"/></g></g></g></svg>